<?xml version="1.0" standalone="no"?>
<!DOCTYPE svg PUBLIC "-//W3C//DTD SVG 20010904//EN"
 "http://www.w3.org/TR/2001/REC-SVG-20010904/DTD/svg10.dtd">
<svg version="1.0" xmlns="http://www.w3.org/2000/svg"
 width="47.000000pt" height="36.000000pt" viewBox="0 0 47.000000 36.000000"
 preserveAspectRatio="xMidYMid meet">
<metadata>
Created by potrace 1.16, written by Peter Selinger 2001-2019
</metadata>
<g transform="translate(0.000000,36.000000) scale(0.100000,-0.100000)"
fill="#000000" stroke="none">
<path d="M92 306 c-53 -13 -78 -26 -51 -26 11 0 11 -2 1 -8 -7 -5 -10 -15 -7
-24 5 -13 14 -13 73 -2 37 7 94 13 127 14 l60 0 -52 -30 c-63 -36 -193 -160
-175 -167 6 -3 10 -9 6 -14 -15 -25 16 -2 82 61 63 60 156 121 181 120 4 -1
-18 -14 -50 -31 -55 -28 -208 -162 -197 -172 3 -3 37 1 75 9 85 16 177 18 228
3 22 -6 42 -8 45 -4 3 3 -5 9 -18 12 -23 6 -23 7 10 19 l35 12 -30 13 c-19 8
-72 13 -143 14 l-114 0 34 28 c43 36 145 87 174 87 17 0 25 7 30 24 8 34 1 42
-53 60 -56 19 -194 20 -271 2z"/>
</g>
</svg>
