<svg width="33" height="87" viewBox="0 0 33 87" fill="none" xmlns="http://www.w3.org/2000/svg">
<path d="M0.170455 43.7727V37.8068C4.03409 37.8068 6.72727 37.0227 8.25 35.4545C9.79545 33.8636 10.5682 31.2841 10.5682 27.7159V19.0227C10.5682 15.1818 11.0455 12.0341 12 9.57955C12.9773 7.125 14.3977 5.21591 16.2614 3.85227C18.125 2.48863 20.3977 1.54545 23.0795 1.02272C25.7614 0.477272 28.8068 0.204546 32.2159 0.204546V9.68182C29.5341 9.68182 27.4773 10.0568 26.0455 10.8068C24.6136 11.5341 23.625 12.6591 23.0795 14.1818C22.5568 15.7045 22.2955 17.6477 22.2955 20.0114V31.1932C22.2955 32.9432 22 34.5795 21.4091 36.1023C20.8182 37.625 19.7386 38.9659 18.1705 40.125C16.6023 41.2614 14.3636 42.1591 11.4545 42.8182C8.56818 43.4545 4.80682 43.7727 0.170455 43.7727ZM32.2159 86.8295C28.8068 86.8295 25.7614 86.5568 23.0795 86.0114C20.3977 85.4886 18.125 84.5455 16.2614 83.1818C14.3977 81.8182 12.9773 79.9091 12 77.4545C11.0455 75 10.5682 71.8523 10.5682 68.0114V59.3523C10.5682 55.7841 9.79545 53.2159 8.25 51.6477C6.72727 50.0568 4.03409 49.2614 0.170455 49.2614V43.2955C4.80682 43.2955 8.56818 43.625 11.4545 44.2841C14.3636 44.9205 16.6023 45.8182 18.1705 46.9773C19.7386 48.1136 20.8182 49.4432 21.4091 50.9659C22 52.4886 22.2955 54.1136 22.2955 55.8409V67.0227C22.2955 69.3864 22.5568 71.3295 23.0795 72.8523C23.625 74.375 24.6136 75.5114 26.0455 76.2614C27.4773 77.0114 29.5341 77.3864 32.2159 77.3864V86.8295ZM0.170455 49.2614V37.8068H10.9773V49.2614H0.170455Z" fill="#FF0000"/>
</svg>
